<svg width="26" height="24" viewBox="0 0 26 24" fill="none" xmlns="http://www.w3.org/2000/svg">
<path d="M2 3.11111C2 2.81643 2.11706 2.53381 2.32544 2.32544C2.53381 2.11706 2.81643 2 3.11111 2H9.77778L12.5556 5.33333H22C22.2947 5.33333 22.5773 5.4504 22.7857 5.65877C22.994 5.86714 23.1111 6.14976 23.1111 6.44444V20.8889C23.1111 21.1836 22.994 21.4662 22.7857 21.6746C22.5773 21.8829 22.2947 22 22 22H3.11111C2.81643 22 2.53381 21.8829 2.32544 21.6746C2.11706 21.4662 2 21.1836 2 20.8889V3.11111Z" stroke="#82AE46" stroke-width="4" stroke-linejoin="round"/>
<path d="M9.22217 14.7778L11.9999 17L16.9999 10.8889" stroke="#82AE46" stroke-width="4" stroke-linecap="round" stroke-linejoin="round"/>
</svg>
