<svg xmlns="http://www.w3.org/2000/svg" width="512" height="512" viewBox="0 0 60 60" style="enable-background:new 0 0 512 512" xml:space="preserve">
  <path d="M30 35.6a7.86 7.86 0 0 0 0-15.7 7.86 7.86 0 0 0 0 15.7zm0-13.3a5.44 5.44 0 0 1 5.44 5.45A5.44 5.44 0 1 1 30 22.3zm18.54 16.5a6.52 6.52 0 0 0 6.51-6.51 6.52 6.52 0 0 0-13.02 0 6.52 6.52 0 0 0 6.51 6.5zm0-10.62a4.1 4.1 0 0 1 4.1 4.1 4.1 4.1 0 0 1-4.1 4.1 4.1 4.1 0 0 1-4.1-4.1 4.1 4.1 0 0 1 4.1-4.1zm5.04 12.03H43.5a6.55 6.55 0 0 0-1.52.2 7.88 7.88 0 0 0-5.69-2.43H23.7c-2.24 0-4.25.94-5.69 2.43a6.56 6.56 0 0 0-1.52-.2H6.42a6.57 6.57 0 0 0-6.56 6.57v3.5c0 .67.54 1.2 1.2 1.2h57.87a1.2 1.2 0 0 0 1.21-1.2v-3.5a6.57 6.57 0 0 0-6.56-6.57zm-37.8 5.69v3.17H2.27v-2.29a4.16 4.16 0 0 1 4.15-4.16h10.09a7.84 7.84 0 0 0-.73 3.28zm26.03 3.17H18.19V45.9a5.51 5.51 0 0 1 5.5-5.5H36.3a5.51 5.51 0 0 1 5.5 5.5v3.18zm15.92 0H44.22V45.9c0-1.16-.27-2.26-.73-3.26h10.09a4.16 4.16 0 0 1 4.15 4.15v2.3zM11.46 38.8a6.52 6.52 0 0 0 6.5-6.51 6.52 6.52 0 0 0-6.5-6.52 6.52 6.52 0 0 0-6.52 6.51 6.52 6.52 0 0 0 6.52 6.52zm0-10.62a4.1 4.1 0 0 1 4.1 4.1 4.1 4.1 0 0 1-4.1 4.1 4.1 4.1 0 0 1-4.1-4.1 4.1 4.1 0 0 1 4.1-4.1zm16.64-10.6a1.2 1.2 0 0 0 .85-.35l6.66-6.66a1.2 1.2 0 1 0-1.7-1.7l-5.81 5.8-2-2a1.2 1.2 0 1 0-1.7 1.7l2.85 2.86a1.2 1.2 0 0 0 .85.35z" data-original="#000000"/>
</svg>
