<svg width="50" height="50" viewBox="0 0 50 50" fill="none" xmlns="http://www.w3.org/2000/svg">
<circle cx="25" cy="25" r="25" fill="#82AE46"/>
<path d="M29.1563 30.3438C28.9271 30.0729 28.8125 29.7658 28.8125 29.4225C28.8125 29.0792 28.9271 28.7925 29.1563 28.5625L31.4688 26.25H22.5C22.1458 26.25 21.8488 26.13 21.6088 25.89C21.3688 25.65 21.2492 25.3533 21.25 25C21.25 24.6458 21.37 24.3488 21.61 24.1088C21.85 23.8688 22.1467 23.7492 22.5 23.75H31.4688L29.1563 21.4375C28.9063 21.1875 28.7813 20.8904 28.7813 20.5463C28.7813 20.2021 28.9063 19.9054 29.1563 19.6563C29.3854 19.4063 29.6721 19.2813 30.0163 19.2813C30.3604 19.2813 30.6467 19.3958 30.875 19.625L35.375 24.125C35.5 24.25 35.5888 24.3854 35.6413 24.5313C35.6938 24.6771 35.7196 24.8333 35.7188 25C35.7188 25.1667 35.6929 25.3229 35.6413 25.4688C35.5896 25.6146 35.5008 25.75 35.375 25.875L30.875 30.375C30.6042 30.6458 30.3071 30.7658 29.9838 30.735C29.6604 30.7042 29.3846 30.5738 29.1563 30.3438ZM16.25 36.25C15.5625 36.25 14.9738 36.005 14.4838 35.515C13.9938 35.025 13.7492 34.4367 13.75 33.75V16.25C13.75 15.5625 13.995 14.9738 14.485 14.4838C14.975 13.9938 15.5633 13.7492 16.25 13.75H23.75C24.1042 13.75 24.4013 13.87 24.6413 14.11C24.8813 14.35 25.0008 14.6467 25 15C25 15.3542 24.88 15.6513 24.64 15.8913C24.4 16.1313 24.1033 16.2508 23.75 16.25H16.25V33.75H23.75C24.1042 33.75 24.4013 33.87 24.6413 34.11C24.8813 34.35 25.0008 34.6467 25 35C25 35.3542 24.88 35.6513 24.64 35.8913C24.4 36.1313 24.1033 36.2508 23.75 36.25H16.25Z" fill="white"/>
</svg>
