<svg width="50" height="50" viewBox="0 0 50 50" fill="none" xmlns="http://www.w3.org/2000/svg">
<circle cx="25" cy="25" r="25" fill="#82AE46"/>
<path d="M25 25C23.625 25 22.4479 24.5104 21.4688 23.5312C20.4896 22.5521 20 21.375 20 20C20 18.625 20.4896 17.4479 21.4688 16.4688C22.4479 15.4896 23.625 15 25 15C26.375 15 27.5521 15.4896 28.5312 16.4688C29.5104 17.4479 30 18.625 30 20C30 21.375 29.5104 22.5521 28.5312 23.5312C27.5521 24.5104 26.375 25 25 25ZM15 35V31.5C15 30.7917 15.1825 30.1404 15.5475 29.5463C15.9125 28.9521 16.3967 28.4992 17 28.1875C18.2917 27.5417 19.6042 27.0571 20.9375 26.7338C22.2708 26.4104 23.625 26.2492 25 26.25C26.375 26.25 27.7292 26.4117 29.0625 26.735C30.3958 27.0583 31.7083 27.5425 33 28.1875C33.6042 28.5 34.0887 28.9533 34.4538 29.5475C34.8188 30.1417 35.0008 30.7925 35 31.5V35H15Z" fill="white"/>
</svg>
